<svg xmlns="http://www.w3.org/2000/svg" xmlns:xlink="http://www.w3.org/1999/xlink" viewBox="0,0,256,256" width="24px" height="24px"><g fill="#3ce894" fill-rule="nonzero" stroke="none" stroke-width="1" stroke-linecap="butt" stroke-linejoin="miter" stroke-miterlimit="10" stroke-dasharray="" stroke-dashoffset="0" font-family="none" font-weight="none" font-size="none" text-anchor="none" style="mix-blend-mode: normal"><g transform="scale(10.66667,10.66667)"><path d="M5,7h2h12c1.1,0 2,-0.9 2,-2c0,-1.1 -0.9,-2 -2,-2h-12h-2c-1.1,0 -2,0.9 -2,2c0,1.1 0.9,2 2,2z"></path><path d="M19,10h-3h-11c-1.1,0 -2,0.9 -2,2c0,1.1 0.9,2 2,2h11h3c1.1,0 2,-0.9 2,-2c0,-1.1 -0.9,-2 -2,-2z"></path><path d="M19,17h-6h-8c-1.1,0 -2,0.9 -2,2c0,1.1 0.9,2 2,2h8h6c1.1,0 2,-0.9 2,-2c0,-1.1 -0.9,-2 -2,-2z"></path></g></g></svg>